<!-- <svg width="13" height="12" viewBox="0 0 13 12" fill="none" xmlns="http://www.w3.org/2000/svg">
  <path d="M5.51353 6.84702C5.51353 6.4328 5.17775 6.09702 4.76353 6.09702C4.34932 6.09702 4.01353 6.4328 4.01353 6.84702H5.51353ZM4.01353 10.3189C4.01353 10.7331 4.34932 11.0689 4.76353 11.0689C5.17775 11.0689 5.51353 10.7331 5.51353 10.3189H4.01353ZM8.98645 6.84702C8.98645 6.4328 8.65066 6.09702 8.23645 6.09702C7.82223 6.09702 7.48645 6.4328 7.48645 6.84702H8.98645ZM7.48645 10.3189C7.48645 10.7331 7.82223 11.0689 8.23645 11.0689C8.65066 11.0689 8.98645 10.7331 8.98645 10.3189H7.48645ZM9.62499 0.541809C9.21078 0.541809 8.87499 0.877596 8.87499 1.29181C8.87499 1.70602 9.21078 2.04181 9.62499 2.04181V0.541809ZM11.7083 2.04181C12.1225 2.04181 12.4583 1.70602 12.4583 1.29181C12.4583 0.877596 12.1225 0.541809 11.7083 0.541809V2.04181ZM3.37499 2.04181C3.7892 2.04181 4.12499 1.70602 4.12499 1.29181C4.12499 0.877596 3.7892 0.541809 3.37499 0.541809V2.04181ZM1.29166 0.541809C0.877443 0.541809 0.541656 0.877596 0.541656 1.29181C0.541656 1.70602 0.877443 2.04181 1.29166 2.04181V0.541809ZM4.01353 6.84702V10.3189H5.51353V6.84702H4.01353ZM7.48645 6.84702V10.3189H8.98645V6.84702H7.48645ZM9.62499 2.04181H11.7083V0.541809H9.62499V2.04181ZM3.37499 0.541809H1.29166V2.04181H3.37499V0.541809Z" fill="#B3B7EE" />
</svg> -->

<svg xmlns="http://www.w3.org/2000/svg" xmlns:xlink="http://www.w3.org/1999/xlink" version="1.1" width="25" height="25" viewBox="0 0 35 35" xml:space="preserve">

<defs>
</defs>
<g style="stroke: none; stroke-width: 0; stroke-dasharray: none; stroke-linecap: butt; stroke-linejoin: miter; stroke-miterlimit: 10; fill: none; fill-rule: nonzero; opacity: 1;" transform="translate(1.4065934065934016 1.4065934065934016) scale(2.81 2.81)" >
	<path d="M 64.71 90 H 25.291 c -4.693 0 -8.584 -3.67 -8.859 -8.355 l -3.928 -67.088 c -0.048 -0.825 0.246 -1.633 0.812 -2.234 c 0.567 -0.601 1.356 -0.941 2.183 -0.941 h 59.002 c 0.826 0 1.615 0.341 2.183 0.941 c 0.566 0.601 0.86 1.409 0.813 2.234 l -3.928 67.089 C 73.294 86.33 69.403 90 64.71 90 z M 18.679 17.381 l 3.743 63.913 C 22.51 82.812 23.771 84 25.291 84 H 64.71 c 1.52 0 2.779 -1.188 2.868 -2.705 l 3.742 -63.914 H 18.679 z" style="stroke: none; stroke-width: 1; stroke-dasharray: none; stroke-linecap: butt; stroke-linejoin: miter; stroke-miterlimit: 10; fill: #B3B7EE; fill-rule: nonzero; opacity: 1;" transform=" matrix(1 0 0 1 0 0) " stroke-linecap="round" />
	<path d="M 80.696 17.381 H 9.304 c -1.657 0 -3 -1.343 -3 -3 s 1.343 -3 3 -3 h 71.393 c 1.657 0 3 1.343 3 3 S 82.354 17.381 80.696 17.381 z" style="stroke: none; stroke-width: 1; stroke-dasharray: none; stroke-linecap: butt; stroke-linejoin: miter; stroke-miterlimit: 10; fill: #B3B7EE; fill-rule: nonzero; opacity: 1;" transform=" matrix(1 0 0 1 0 0) " stroke-linecap="round" />
	<path d="M 58.729 17.381 H 31.271 c -1.657 0 -3 -1.343 -3 -3 V 8.789 C 28.271 3.943 32.214 0 37.061 0 h 15.879 c 4.847 0 8.789 3.943 8.789 8.789 v 5.592 C 61.729 16.038 60.386 17.381 58.729 17.381 z M 34.271 11.381 h 21.457 V 8.789 C 55.729 7.251 54.478 6 52.939 6 H 37.061 c -1.538 0 -2.789 1.251 -2.789 2.789 V 11.381 z" style="stroke: none; stroke-width: 1; stroke-dasharray: none; stroke-linecap: butt; stroke-linejoin: miter; stroke-miterlimit: 10; fill: #B3B7EE; fill-rule: nonzero; opacity: 1;" transform=" matrix(1 0 0 1 0 0) " stroke-linecap="round" />
	<path d="M 58.33 74.991 c -0.06 0 -0.118 -0.002 -0.179 -0.005 c -1.653 -0.097 -2.916 -1.517 -2.819 -3.171 l 2.474 -42.244 c 0.097 -1.655 1.508 -2.933 3.171 -2.819 c 1.653 0.097 2.916 1.516 2.819 3.17 l -2.474 42.245 C 61.229 73.761 59.906 74.991 58.33 74.991 z" style="stroke: none; stroke-width: 1; stroke-dasharray: none; stroke-linecap: butt; stroke-linejoin: miter; stroke-miterlimit: 10; fill: #B3B7EE; fill-rule: nonzero; opacity: 1;" transform=" matrix(1 0 0 1 0 0) " stroke-linecap="round" />
	<path d="M 31.669 74.991 c -1.577 0 -2.898 -1.23 -2.992 -2.824 l -2.473 -42.245 c -0.097 -1.654 1.165 -3.073 2.819 -3.17 c 1.646 -0.111 3.073 1.165 3.17 2.819 l 2.473 42.244 c 0.097 1.654 -1.165 3.074 -2.819 3.171 C 31.788 74.989 31.729 74.991 31.669 74.991 z" style="stroke: none; stroke-width: 1; stroke-dasharray: none; stroke-linecap: butt; stroke-linejoin: miter; stroke-miterlimit: 10; fill: #B3B7EE; fill-rule: nonzero; opacity: 1;" transform=" matrix(1 0 0 1 0 0) " stroke-linecap="round" />
	<path d="M 45 74.991 c -1.657 0 -3 -1.343 -3 -3 V 29.747 c 0 -1.657 1.343 -3 3 -3 c 1.657 0 3 1.343 3 3 v 42.244 C 48 73.648 46.657 74.991 45 74.991 z" style="stroke: none; stroke-width: 1; stroke-dasharray: none; stroke-linecap: butt; stroke-linejoin: miter; stroke-miterlimit: 10; fill: #B3B7EE; fill-rule: nonzero; opacity: 1;" transform=" matrix(1 0 0 1 0 0) " stroke-linecap="round" />
</g>
</svg>