<svg width="15" height="17" viewBox="0 0 15 17" fill="none" xmlns="http://www.w3.org/2000/svg">
  <path d="M8.30294 4.27089C8.56199 3.94768 8.50997 3.47566 8.18675 3.21662C7.86354 2.95757 7.39152 3.00959 7.13248 3.3328L8.30294 4.27089ZM1.57396 11.4675L2.14199 11.9572C2.14785 11.9504 2.15358 11.9435 2.15919 11.9365L1.57396 11.4675ZM1.39583 11.9029L0.64729 11.8541L0.646636 11.8682L1.39583 11.9029ZM1.25 15.0518L0.500803 15.0172C0.499078 15.0544 0.500133 15.0917 0.503958 15.1288L1.25 15.0518ZM2.06979 15.7675L2.09431 16.5171C2.14433 16.5154 2.19406 16.5088 2.24275 16.4973L2.06979 15.7675ZM5.19479 15.0268L5.36777 15.7567L5.37941 15.7538L5.19479 15.0268ZM5.59583 14.7727L6.17444 15.25L6.18094 15.2419L5.59583 14.7727ZM12.4726 7.39605C12.7317 7.07291 12.6798 6.60088 12.3567 6.34174C12.0336 6.08261 11.5615 6.1345 11.3024 6.45764L12.4726 7.39605ZM7.13576 3.33261C6.8766 3.65573 6.92846 4.12777 7.25159 4.38692C7.57472 4.64608 8.04675 4.59422 8.30591 4.27109L7.13576 3.33261ZM9.375 1.73935L9.96007 2.20859C9.96993 2.1963 9.9794 2.1837 9.98846 2.17081L9.375 1.73935ZM11.0719 1.40601L11.5517 0.829574C11.5278 0.809693 11.5027 0.791316 11.4765 0.774549L11.0719 1.40601ZM13.4021 3.3456L13.9329 2.81576C13.9166 2.79945 13.8996 2.7839 13.8819 2.76916L13.4021 3.3456ZM13.7531 4.20068L14.503 4.2048L14.503 4.2048L13.7531 4.20068ZM13.3927 5.05185L12.8677 4.51621C12.8465 4.53704 12.8265 4.55912 12.8079 4.58234L13.3927 5.05185ZM11.3026 6.45734C11.0433 6.78034 11.095 7.2524 11.418 7.51171C11.741 7.77101 12.2131 7.71937 12.4724 7.39636L11.3026 6.45734ZM8.46255 3.6907C8.40117 3.28106 8.01932 2.99874 7.60968 3.06013C7.20004 3.12152 6.91773 3.50336 6.97911 3.913L8.46255 3.6907ZM11.9885 7.67002C12.3989 7.61425 12.6864 7.23631 12.6307 6.82587C12.5749 6.41543 12.197 6.12791 11.7865 6.18368L11.9885 7.67002ZM7.13248 3.3328L0.988726 10.9984L2.15919 11.9365L8.30294 4.27089L7.13248 3.3328ZM1.00593 10.9777C0.794362 11.2231 0.668508 11.5308 0.647423 11.8541L2.14424 11.9517C2.14411 11.9537 2.14332 11.9557 2.14199 11.9572L1.00593 10.9777ZM0.646636 11.8682L0.500803 15.0172L1.9992 15.0865L2.14503 11.9376L0.646636 11.8682ZM0.503958 15.1288C0.587353 15.9373 1.28192 16.5436 2.09431 16.5171L2.04527 15.0179C2.02012 15.0187 1.99862 14.9999 1.99604 14.9749L0.503958 15.1288ZM2.24275 16.4973L5.36775 15.7566L5.02183 14.2971L1.89683 15.0377L2.24275 16.4973ZM5.37941 15.7538C5.69121 15.6746 5.96967 15.4981 6.17438 15.2499L5.01728 14.2954C5.01545 14.2976 5.01296 14.2992 5.01017 14.2999L5.37941 15.7538ZM6.18094 15.2419L12.4726 7.39605L11.3024 6.45764L5.01073 14.3035L6.18094 15.2419ZM8.30591 4.27109L9.96007 2.20859L8.78993 1.27011L7.13576 3.33261L8.30591 4.27109ZM9.98846 2.17081C10.1425 1.95179 10.4418 1.893 10.6672 2.03748L11.4765 0.774549C10.5747 0.196644 9.37772 0.431783 8.76154 1.30788L9.98846 2.17081ZM10.5921 1.98246L12.9223 3.92204L13.8819 2.76916L11.5517 0.829574L10.5921 1.98246ZM12.8713 3.87544C12.9563 3.96061 13.0037 4.07622 13.0031 4.19656L14.503 4.2048C14.5059 3.68427 14.3006 3.18417 13.9329 2.81576L12.8713 3.87544ZM13.0031 4.19656C13.0024 4.31689 12.9537 4.43198 12.8677 4.51621L13.9177 5.58749C14.2894 5.22314 14.5002 4.72533 14.503 4.2048L13.0031 4.19656ZM12.8079 4.58234L11.3026 6.45734L12.4724 7.39636L13.9776 5.52136L12.8079 4.58234ZM6.97911 3.913C7.34049 6.32452 9.57223 7.99833 11.9885 7.67002L11.7865 6.18368C10.1832 6.40153 8.70234 5.29087 8.46255 3.6907L6.97911 3.913Z" fill="#B3B7EE" />
</svg>