<svg width="13" height="12" viewBox="0 0 13 12" fill="none" xmlns="http://www.w3.org/2000/svg">
  <path d="M5.51353 6.84702C5.51353 6.4328 5.17775 6.09702 4.76353 6.09702C4.34932 6.09702 4.01353 6.4328 4.01353 6.84702H5.51353ZM4.01353 10.3189C4.01353 10.7331 4.34932 11.0689 4.76353 11.0689C5.17775 11.0689 5.51353 10.7331 5.51353 10.3189H4.01353ZM8.98645 6.84702C8.98645 6.4328 8.65066 6.09702 8.23645 6.09702C7.82223 6.09702 7.48645 6.4328 7.48645 6.84702H8.98645ZM7.48645 10.3189C7.48645 10.7331 7.82223 11.0689 8.23645 11.0689C8.65066 11.0689 8.98645 10.7331 8.98645 10.3189H7.48645ZM9.62499 0.541809C9.21078 0.541809 8.87499 0.877596 8.87499 1.29181C8.87499 1.70602 9.21078 2.04181 9.62499 2.04181V0.541809ZM11.7083 2.04181C12.1225 2.04181 12.4583 1.70602 12.4583 1.29181C12.4583 0.877596 12.1225 0.541809 11.7083 0.541809V2.04181ZM3.37499 2.04181C3.7892 2.04181 4.12499 1.70602 4.12499 1.29181C4.12499 0.877596 3.7892 0.541809 3.37499 0.541809V2.04181ZM1.29166 0.541809C0.877443 0.541809 0.541656 0.877596 0.541656 1.29181C0.541656 1.70602 0.877443 2.04181 1.29166 2.04181V0.541809ZM4.01353 6.84702V10.3189H5.51353V6.84702H4.01353ZM7.48645 6.84702V10.3189H8.98645V6.84702H7.48645ZM9.62499 2.04181H11.7083V0.541809H9.62499V2.04181ZM3.37499 0.541809H1.29166V2.04181H3.37499V0.541809Z" fill="#B3B7EE" />
</svg>